With: Rufus Sewell, Jennifer Connelly and William Hurt

John Murdoch wordt alleen wakker in een hotel. Hij is z'n geheugen kwijt, en wordt gezocht voor een aantal bizarre moorden. Terwijl hij probeert om z'n verleden te achterhalen komt hij er achter dat er een groep wezens is die de gehele wereld om hem heen controleert. Zij kunnen de wereld en de personen hierin naar wens aanpassen.

A man struggles with memories of his past, including a wife he cannot remember, in a nightmarish world with no sun and run by beings with telekinetic powers who seek the souls of humans. 
 
http://www.imdb.com/title/tt0118929	

------------------------ Dutch Friends ------------------------
---------------------------------------------------------------
- Bezoek ook eens mijn vrienden op:  http://www.Film-Test.nl --
----- voor mijn Nederlandse Sync. ondertitels ---- en meer ----
------- http://www.Film-Test.nl ---- Over Films en meer -------
---------------------------------------------------------------

General:

Complete name                    : Dark CityDark City.avi
Format                           : AVI
Format/Info                      : Audio Video Interleave
File size                        : 696 MiB
Duration                         : 1h 51mn
Overall bit rate                 : 870 Kbps
Writing application              : Nandub v1.0rc2
Writing library                  : Nandub build 1852/release

Video:

Format                           : MPEG-4 Visual
Format profile                   : Advanced Simple@L5
Format settings, BVOP            : 2
Format settings, QPel            : No
Format settings, GMC             : No warppoints
Format settings, Matrix          : Default (MPEG)
Codec ID                         : XVID
Codec ID/Hint                    : XviD
Duration                         : 1h 51mn
Bit rate                         : 719 Kbps
Width                            : 608 pixels
Height                           : 256 pixels
Display aspect ratio             : 2.35:1
Frame rate                       : 23.976 fps
Color space                      : YUV
Chroma subsampling               : 4:2:0
Bit depth                        : 8 bits
Scan type                        : Progressive
Compression mode                 : Lossy
Bits/(Pixel*Frame)               : 0.193
Stream size                      : 574 MiB (83%)
Writing library                  : XviD 1.1.2 (UTC 2006-11-01)

Audio
:
Format                           : MPEG Audio
Format version                   : Version 1
Format profile                   : Layer 3
Mode                             : Joint stereo
Mode extension                   : MS Stereo
Codec ID                         : 55
Codec ID/Hint                    : MP3
Duration                         : 1h 51mn
Bit rate mode                    : Variable
Bit rate                         : 139 Kbps
Minimum bit rate                 : 32.0 Kbps
Channel(s)                       : 2 channels
Sampling rate                    : 48.0 KHz
Compression mode                 : Lossy
Stream size                      : 111 MiB (16%)
Alignment                        : Aligned on interleaves
Interleave, duration             : 24 ms (0.58 video frame)
Interleave, preload duration     : 127 ms
Writing library                  : LAME3.97 
Encoding settings                : -m j -V 3 -q 3 -lowpass 18 --vbr-new -b 32